<svg xmlns="http://www.w3.org/2000/svg" viewBox="0 0 226 64"><title>solobaterias_logo</title><g id="Layer_2" data-name="Layer 2"><g id="Layer_1-2" data-name="Layer 1"><path d="M13.69,20.29H11.3V17.42H5.57v2.87H3.17a1.91,1.91,0,0,0-1.9,1.9v22a1.92,1.92,0,0,0,1.9,1.92h10.5a1.92,1.92,0,0,0,1.92-1.9v-22A1.91,1.91,0,0,0,13.69,20.29ZM7,43.21V35.33H4.13L9.86,24.58v7.88h2.87Z" style="fill:#fff"/><path d="M37.16,29.13a4.09,4.09,0,0,0-4.36-3.37c-2.26,0-3.74,1.45-3.74,3,0,1.32.84,2.37,2.6,2.7l3.34.64c4.35.85,6.68,3.68,6.68,7.06,0,3.68-3.07,7.39-8.64,7.39-6.34,0-9.15-4.08-9.52-7.49l4.32-1.15c.21,2.36,1.86,4.49,5.23,4.49,2.5,0,3.89-1.25,3.89-2.94,0-1.38-1.05-2.46-2.91-2.83L30.71,36c-3.81-.77-6.28-3.24-6.28-6.85,0-4.25,3.82-7.49,8.34-7.49,5.81,0,8,3.51,8.57,6.21Z" style="fill:#fff"/><path d="M61.32,37.77a8.71,8.71,0,1,1-17.41,0,8.71,8.71,0,1,1,17.41,0Zm-4.49,0c0-3.14-2-4.72-4.22-4.72s-4.21,1.58-4.21,4.72,2,4.73,4.21,4.73S56.83,40.91,56.83,37.77Z" style="fill:#fff"/><path d="M64.87,46.07V21.64h4.48V46.07Z" style="fill:#fff"/><path d="M90.31,37.77a8.71,8.71,0,1,1-17.41,0,8.71,8.71,0,1,1,17.41,0Zm-4.49,0c0-3.14-2-4.72-4.22-4.72s-4.21,1.58-4.21,4.72,2,4.73,4.21,4.73S85.82,40.91,85.82,37.77Z" style="fill:#fff"/><path d="M111.14,22.14c4.65,0,7.28,2.74,7.28,6.45A5.31,5.31,0,0,1,115,33.72a5.65,5.65,0,0,1,4.22,5.67c0,3.88-2.91,6.68-7.39,6.68h-9.25V22.14ZM110.43,32c2.12,0,3.4-1.18,3.4-3s-1.18-3-3.44-3h-3.27v6Zm.47,10.16c2.26,0,3.61-1.18,3.61-3.1s-1.22-3.21-3.54-3.21h-3.85v6.31Z" style="fill:#fff"/><path d="M126.69,36.52l4.09-.61c.94-.13,1.25-.6,1.25-1.18,0-1.18-.92-2.16-2.81-2.16a3,3,0,0,0-3.17,2.7l-4-.84c.27-2.6,2.67-5.47,7.12-5.47,5.27,0,7.22,3,7.22,6.31v8.17a17.17,17.17,0,0,0,.21,2.63H132.5a11.36,11.36,0,0,1-.17-2,5.54,5.54,0,0,1-4.89,2.47c-3.55,0-5.71-2.4-5.71-5C121.73,38.58,123.93,36.93,126.69,36.52ZM132,39.36v-.75l-3.75.58a2.1,2.1,0,0,0-2.06,2.09,2,2,0,0,0,2.16,1.92C130.27,43.2,132,42.29,132,39.36Z" style="fill:#fff"/><path d="M146.37,29.47h3.34v4h-3.34V40.4c0,1.45.67,1.93,2,1.93a6.28,6.28,0,0,0,1.38-.14V45.9a6.64,6.64,0,0,1-2.53.41c-3.24,0-5.27-1.92-5.27-5.13V33.45h-3v-4h.84a2.39,2.39,0,0,0,2.57-2.63V24.51h4.05Z" style="fill:#fff"/><path d="M168.24,41.31a7.49,7.49,0,0,1-7.56,5.27c-4.56,0-8.57-3.27-8.57-8.88,0-5.3,3.91-8.74,8.16-8.74,5.13,0,8.2,3.28,8.2,8.61,0,.64-.06,1.31-.06,1.38H156.53a4,4,0,0,0,4.18,3.78,3.66,3.66,0,0,0,3.78-2.53Zm-4.19-5.43a3.34,3.34,0,0,0-3.71-3.27,3.58,3.58,0,0,0-3.71,3.27Z" style="fill:#fff"/><path d="M182.14,33.92a6.74,6.74,0,0,0-1.35-.13c-2.29,0-4.28,1.11-4.28,4.69v7.59H172V29.47h4.35v2.46a5,5,0,0,1,4.73-2.6c.37,0,.7,0,1,.07Z" style="fill:#fff"/><path d="M185.31,46.07V29.47h4.49v16.6Zm3.85-18.59h-3.61l3.07-5.07h5.13Z" style="fill:#fff"/><path d="M198.54,36.52l4.09-.61c.94-.13,1.25-.6,1.25-1.18,0-1.18-.92-2.16-2.81-2.16a3,3,0,0,0-3.17,2.7l-4-.84c.27-2.6,2.67-5.47,7.12-5.47,5.27,0,7.22,3,7.22,6.31v8.17a17.17,17.17,0,0,0,.21,2.63h-4.12a11.36,11.36,0,0,1-.17-2,5.54,5.54,0,0,1-4.89,2.47c-3.55,0-5.71-2.4-5.71-5C193.58,38.58,195.78,36.93,198.54,36.52Zm5.34,2.84v-.75l-3.75.58a2.1,2.1,0,0,0-2.06,2.09,2,2,0,0,0,2.16,1.92C202.12,43.2,203.88,42.29,203.88,39.36Z" style="fill:#fff"/><path d="M215.21,40.61a2.77,2.77,0,0,0,3,2.53c1.49,0,2.2-.78,2.2-1.66s-.51-1.35-1.79-1.62l-2.2-.5c-3.2-.71-4.65-2.64-4.65-5,0-3,2.63-5.44,6.21-5.44,4.72,0,6.31,3,6.51,4.79l-3.75.85a2.52,2.52,0,0,0-2.73-2.23A1.91,1.91,0,0,0,215.92,34c0,.81.61,1.32,1.52,1.49l2.36.51c3.28.67,4.93,2.66,4.93,5.09,0,2.7-2.09,5.47-6.44,5.47-5,0-6.72-3.24-6.92-5.13Z" style="fill:#fff"/><rect width="226" height="64" style="fill:none"/></g></g></svg>